<svg xmlns="http://www.w3.org/2000/svg" viewBox="0 0 256 256">
  <defs>
    <linearGradient id="g" x1="0" y1="0" x2="1" y2="1">
      <stop offset="0" stop-color="#5bd6ff"/>
      <stop offset="1" stop-color="#ff5b6e"/>
    </linearGradient>
  </defs>
  <rect width="256" height="256" rx="56" fill="#141421"/>
  <path d="M72 168c0-42 28-80 72-80s72 38 72 80c0 12-10 22-22 22h-18c-9 0-16-7-16-16v-10c0-9-7-16-16-16s-16 7-16 16v10c0 9-7 16-16 16H94c-12 0-22-10-22-22z" fill="url(#g)"/>
  <circle cx="122" cy="122" r="8" fill="#0b0b0f"/>
  <circle cx="154" cy="114" r="8" fill="#0b0b0f"/>
  <circle cx="176" cy="138" r="8" fill="#0b0b0f"/>
</svg>
